# xmcd
#
# Track frame offsets: 
#        150
#        95325
#        183525
#        262950
#
# Disc length: 4240 seconds
#
# Revision: 0
# Processed by: cddbd v1.5.1PL0 Copyright (c) Steve Scherf et al.
# Submitted via: ExactAudioCopy v0.95a5
#
DISCID=2c108e04
DTITLE=Various Artist - Hotsound Megamix Vol1 and Vol2
DYEAR=1988
DGENRE=Pop
TTITLE0=Laserdance megamix 1 mini lp
TTITLE1=Laserdance megamix 1 compact disc
TTITLE2=Hot sound megamix 2 mini lp
TTITLE3=Hot sound megamix 2 compact disc
EXTD=
EXTT0=
EXTT1=
EXTT2=
EXTT3=
PLAYORDER=
